<svg width="138" height="34" viewBox="0 0 138 34" fill="none" xmlns="http://www.w3.org/2000/svg">
<g clip-path="url(#clip0_2004_30260)">
<path d="M18.1758 13.5289L15.9579 9.76521C15.0655 8.2534 16.1842 6.35572 17.9689 6.35572H37.0578L39.4181 2.35163C40.0388 1.30158 39.2629 -0.0078125 38.0213 -0.0078125H1.60886C0.373769 -0.00148692 -0.402202 1.30791 0.218575 2.35796L6.81433 13.5289H18.1823H18.1758Z" fill="url(#paint0_linear_2004_30260)"/>
<path d="M20.0145 13.5273L22.2324 17.2911C23.1248 18.8029 22.0061 20.7006 20.2214 20.7006H11.0391L18.4237 33.2062C19.0445 34.2563 20.59 34.2563 21.2108 33.2062L32.8245 13.5273H20.008H20.0145Z" fill="url(#paint1_linear_2004_30260)"/>
<path style="mix-blend-mode:multiply" d="M20.0145 13.5273L22.2324 17.2911C23.1248 18.8029 22.0061 20.7006 20.2214 20.7006H11.0391L18.4237 33.2062C19.0445 34.2563 20.59 34.2563 21.2108 33.2062L32.8245 13.5273H20.008H20.0145Z" fill="url(#paint2_linear_2004_30260)"/>
<path style="mix-blend-mode:multiply" d="M18.173 13.5309L15.955 9.76715C15.5217 9.02706 15.567 8.20474 15.9291 7.54688L12.3984 13.5245H18.173V13.5309Z" fill="url(#paint3_linear_2004_30260)"/>
<path d="M51.5208 19.07C50.6478 18.7158 49.5162 18.3489 48.1518 17.9884C47.0719 17.6974 46.2119 17.4317 45.604 17.1914C45.0156 16.9636 44.5177 16.6537 44.1297 16.2741C43.7546 15.9073 43.5736 15.4518 43.5736 14.8825C43.5736 14.1614 43.8775 13.5984 44.5112 13.1493C45.1514 12.6939 46.0308 12.4661 47.1236 12.4661C48.307 12.4661 49.2575 12.7508 49.9559 13.3138C50.6543 13.8767 51.0293 14.6042 51.094 15.5404L51.1069 15.7112H54.6505L54.6376 15.5214C54.5406 13.6554 53.8164 12.1688 52.4778 11.0935C51.1457 10.0245 49.3804 9.48047 47.2336 9.48047C45.8433 9.48047 44.5888 9.72084 43.496 10.1953C42.4031 10.676 41.5431 11.3339 40.9417 12.1499C40.3403 12.9722 40.0364 13.8894 40.0364 14.8825C40.0364 16.1287 40.3727 17.1471 41.0387 17.9188C41.6918 18.6779 42.4937 19.2535 43.4119 19.6394C44.3237 20.0189 45.5006 20.3984 46.9102 20.759C48.4492 21.1385 49.5938 21.5307 50.318 21.9166C51.0035 22.2834 51.3397 22.8274 51.3397 23.5865C51.3397 24.3456 51.0229 24.9339 50.3633 25.4209C49.7037 25.9143 48.779 26.1674 47.6151 26.1674C46.3606 26.1674 45.3324 25.8827 44.5694 25.3134C43.8063 24.7504 43.386 24.042 43.302 23.15L43.289 22.9856H39.6484L39.6614 23.1754C39.7325 24.3456 40.1205 25.3956 40.8124 26.2939C41.5043 27.1921 42.4549 27.9006 43.6447 28.4003C44.8216 28.8937 46.1731 29.1467 47.6603 29.1467C49.0571 29.1467 50.3051 28.9063 51.385 28.4319C52.4714 27.9512 53.3249 27.287 53.9198 26.4457C54.5212 25.5981 54.8251 24.6366 54.8251 23.5739C54.7993 22.3973 54.463 21.4295 53.8228 20.6957C53.1956 19.9746 52.4261 19.4243 51.5402 19.0574L51.5208 19.07Z" fill="white"/>
<path d="M60.7389 5.08445H57.1953V23.5615C57.1953 25.4275 57.6609 26.7938 58.5791 27.6162C59.4909 28.4385 60.8747 28.856 62.6788 28.856H65.7245V25.864H63.2026C62.2779 25.864 61.6313 25.6932 61.2756 25.3516C60.92 25.0164 60.7389 24.4091 60.7389 23.5551V12.7131H65.7245V9.79068H60.7389V5.07812V5.08445Z" fill="white"/>
<path d="M81.6823 10.6712C80.2661 9.88679 78.6172 9.48828 76.7743 9.48828C74.9313 9.48828 73.1983 9.89312 71.7434 10.6901C70.2884 11.4935 69.1439 12.6447 68.342 14.1249C67.5402 15.5988 67.1328 17.3383 67.1328 19.2929C67.1328 21.2475 67.5531 22.9934 68.3744 24.4799C69.2021 25.9727 70.3596 27.1367 71.8145 27.9463C73.2694 28.756 74.9378 29.1608 76.7743 29.1608C79.0828 29.1608 81.0486 28.5789 82.607 27.434C84.1718 26.289 85.2259 24.7835 85.7432 22.9554L85.8078 22.7277H82.0185L81.9733 22.8479C81.6111 23.8537 80.9839 24.6697 80.1045 25.2706C79.2186 25.8715 78.0999 26.1752 76.7743 26.1752C75.1512 26.1752 73.7544 25.6691 72.6228 24.6697C71.53 23.7082 70.9027 22.3608 70.7605 20.6656H86.0083L86.0277 20.5011C86.0988 19.8369 86.1376 19.198 86.1376 18.6034C86.1376 16.8766 85.7497 15.3015 84.9801 13.9225C84.2106 12.5499 83.1049 11.4492 81.6823 10.6585V10.6712ZM70.8057 17.7811C70.9933 16.1554 71.614 14.8587 72.6616 13.9288C73.748 12.961 75.0865 12.474 76.6385 12.474C77.7248 12.474 78.7206 12.689 79.613 13.1192C80.4924 13.543 81.2038 14.1755 81.7146 14.9979C82.1996 15.7759 82.4647 16.7058 82.4906 17.7748H70.8122L70.8057 17.7811Z" fill="white"/>
<path d="M92.6295 3.23828H89.0859V28.8569H92.6295V3.23828Z" fill="white"/>
<path d="M100.34 3.23828H96.7969V28.8569H100.34V3.23828Z" fill="white"/>
<path d="M113.215 9.44922C107.661 9.44922 103.141 13.8708 103.141 19.3045C103.141 24.7381 107.661 29.1597 113.215 29.1597H117.115V25.687H113.215C109.62 25.687 106.691 22.8215 106.691 19.3045C106.691 15.7875 109.62 12.922 113.215 12.922C116.811 12.922 119.74 15.7875 119.74 19.3045V29.1597H123.29V19.3045C123.29 13.8708 118.77 9.44922 113.215 9.44922Z" fill="white"/>
<path d="M133.97 9.79297C130.245 9.79297 127.219 12.7533 127.219 16.3969V28.8583H130.762L130.782 15.7896C130.782 14.2462 132.069 12.9874 133.653 12.9874H138.005V9.79297H133.97Z" fill="white"/>
</g>
<defs>
<linearGradient id="paint0_linear_2004_30260" x1="35.9973" y1="-9.16093" x2="-9.58896" y2="25.5607" gradientUnits="userSpaceOnUse">
<stop stop-color="#CF63FF"/>
<stop offset="1" stop-color="#4D1AE5"/>
</linearGradient>
<linearGradient id="paint1_linear_2004_30260" x1="46.4751" y1="4.59562" x2="0.895294" y2="39.3172" gradientUnits="userSpaceOnUse">
<stop stop-color="#CF63FF"/>
<stop offset="1" stop-color="#4D1AE5"/>
</linearGradient>
<linearGradient id="paint2_linear_2004_30260" x1="16.2381" y1="26.7858" x2="29.3013" y2="5.75219" gradientUnits="userSpaceOnUse">
<stop offset="0.27" stop-color="#A463FF" stop-opacity="0.3"/>
<stop offset="1" stop-color="#541ADD"/>
</linearGradient>
<linearGradient id="paint3_linear_2004_30260" x1="9.29455" y1="22.4816" x2="22.3642" y2="1.44781" gradientUnits="userSpaceOnUse">
<stop offset="0.27" stop-color="#A463FF" stop-opacity="0.3"/>
<stop offset="1" stop-color="#541ADD"/>
</linearGradient>
<clipPath id="clip0_2004_30260">
<rect width="138" height="34" fill="white"/>
</clipPath>
</defs>
</svg>
